<?xml version="1.0" encoding="UTF-8" standalone="no"?>
<svg
   xmlns:dc="http://purl.org/dc/elements/1.1/"
   xmlns:cc="http://creativecommons.org/ns#"
   xmlns:rdf="http://www.w3.org/1999/02/22-rdf-syntax-ns#"
   xmlns:svg="http://www.w3.org/2000/svg"
   xmlns="http://www.w3.org/2000/svg"
   xmlns:xlink="http://www.w3.org/1999/xlink"
   xmlns:sodipodi="http://sodipodi.sourceforge.net/DTD/sodipodi-0.dtd"
   xmlns:inkscape="http://www.inkscape.org/namespaces/inkscape"
   enable-background="new 0 0 100 100"
   id="Layer_1"
   version="1.1"
   viewBox="0 0 100 100"
   xml:space="preserve"
   inkscape:version="0.91 r13725"
   sodipodi:docname="bus.svg"><metadata
     id="metadata13"><rdf:RDF><cc:Work
         rdf:about=""><dc:format>image/svg+xml</dc:format><dc:type
           rdf:resource="http://purl.org/dc/dcmitype/StillImage" /><dc:title /></cc:Work></rdf:RDF></metadata><defs
     id="defs11"><linearGradient
       inkscape:collect="always"
       id="linearGradient4985"><stop
         style="stop-color:#808080;stop-opacity:1;"
         offset="0"
         id="stop4987" /><stop
         style="stop-color:#808080;stop-opacity:0;"
         offset="1"
         id="stop4989" /></linearGradient><radialGradient
       inkscape:collect="always"
       xlink:href="#linearGradient4985"
       id="radialGradient5033"
       cx="43.644066"
       cy="72.881355"
       fx="43.644066"
       fy="72.881355"
       r="19.127117"
       gradientTransform="matrix(1,0,0,0.68985383,0,22.603873)"
       gradientUnits="userSpaceOnUse" /><filter
       inkscape:collect="always"
       style="color-interpolation-filters:sRGB"
       id="filter5111"
       x="-0.29623606"
       width="1.5924721"
       y="-0.52664187"
       height="2.0532837"><feGaussianBlur
         inkscape:collect="always"
         stdDeviation="3.3473"
         id="feGaussianBlur5113" /></filter></defs><sodipodi:namedview
     pagecolor="#ffffff"
     bordercolor="#666666"
     borderopacity="1"
     objecttolerance="10"
     gridtolerance="10"
     guidetolerance="10"
     inkscape:pageopacity="0"
     inkscape:pageshadow="2"
     inkscape:window-width="968"
     inkscape:window-height="697"
     id="namedview9"
     showgrid="false"
     inkscape:zoom="2.36"
     inkscape:cx="56.95061"
     inkscape:cy="50"
     inkscape:window-x="530"
     inkscape:window-y="112"
     inkscape:window-maximized="0"
     inkscape:current-layer="Layer_1" /><g
     id="g4517"
     transform="matrix(1.2175206,0,0,1.1715767,13.654861,4.6003961)"><ellipse
       id="circle4491"
       cy="29.073536"
       cx="24.324459"
       style="fill:#ffffff"
       rx="20.330362"
       ry="19.595739" /><ellipse
       id="circle4493"
       cy="22.635445"
       cx="33.730156"
       style="fill:#c75c5c"
       rx="1.36853"
       ry="1.269943" /><ellipse
       id="circle4495"
       cy="28.985159"
       cx="40.572807"
       style="fill:#c75c5c"
       rx="1.36853"
       ry="1.269943" /><path
       id="path4497"
       d="m 33.730156,32.794988 c 0,1.402652 0,2.539886 0,2.539886 l -21.89648,0 c -1.511541,0 -2.7370599,-1.137234 -2.7370599,-2.539886 l 0,-9.524572 c 0,-1.402652 1.2255189,-2.539886 2.7370599,-2.539886 l 20.527951,0 c 1.511541,0 1.368529,1.137234 1.368529,2.539886 l 0,9.524572 z"
       inkscape:connector-curvature="0"
       style="fill:#ff0000" /><path
       id="path4499"
       d="m 40.570754,32.794988 c 0,0 0.171066,2.539886 -2.73706,2.539886 l -5.47412,0 c 0,0 0,-1.137234 0,-2.539886 l 0,-3.174858 c 0,-1.402652 0,-2.539885 0,-2.539885 l 6.160437,0 c 1.36853,0 2.050743,0.499087 2.050743,1.901739 l 0,3.813004 z"
       inkscape:connector-curvature="0"
       style="fill:#ff0000" /><rect
       id="rect4501"
       y="23.270416"
       x="12.517941"
       width="12.316771"
       height="3.809829"
       style="fill:#ffffff" /><rect
       id="rect4503"
       y="23.270416"
       x="27.571772"
       width="3.421325"
       height="3.809829"
       style="fill:#ffffff" /><rect
       id="rect4505"
       y="23.270416"
       x="11.833676"
       width="3.421325"
       height="3.809829"
       style="fill:#ffffff" /><ellipse
       id="circle4507"
       stroke-miterlimit="10"
       cy="35.334873"
       cx="15.255001"
       style="fill:#e0e0d1;stroke:#4f5d73;stroke-width:1.31831527;stroke-miterlimit:10"
       rx="2.7370601"
       ry="2.539886" /><ellipse
       id="circle4509"
       stroke-miterlimit="10"
       cy="35.334873"
       cx="34.414421"
       style="fill:#e0e0d1;stroke:#4f5d73;stroke-width:1.31831527;stroke-miterlimit:10"
       rx="2.7370601"
       ry="2.539886" /><path
       style="opacity:0.95;fill:#ffffff;fill-opacity:1;stroke:none;stroke-width:1.5;stroke-miterlimit:4;stroke-dasharray:none"
       d="m 38.85739,63.630911 c -2.266413,-2.003297 -4.921188,-3.894246 -6.543752,-4.660996 -14.148657,-6.686017 -17.94139,-23.748807 -7.736212,-34.80376 5.063907,-5.485574 11.094258,-8.087542 18.729117,-8.081216 3.390493,0.0028 5.154925,0.225073 7.415254,0.934092 11.254521,3.530311 18.560585,14.256692 16.821924,24.697071 -1.244064,7.470381 -6.215433,13.829782 -13.528244,17.305394 -2.658288,1.263419 -4.700883,2.656508 -7.169304,4.889597 -1.898542,1.717543 -3.614644,3.115568 -3.813559,3.106729 -0.198915,-0.0088 -2.077766,-1.532953 -4.175224,-3.386911 z M 35.14248,48.700792 c 0.520359,-0.477802 1.057573,-1.219927 1.193808,-1.649168 0.227973,-0.718278 0.828631,-0.780438 7.541505,-0.780438 l 7.293803,0 0.482616,1.278598 c 1.165949,3.088952 6.49116,3.041415 7.779722,-0.06945 0.288551,-0.696623 0.940952,-1.329268 1.52088,-1.47482 1.427563,-0.358296 2.266983,-1.750502 2.266983,-3.759866 0,-1.211881 0.257835,-1.939093 0.874813,-2.467367 2.207111,-1.889785 -0.571745,-3.625485 -5.853627,-3.656236 l -3.495762,-0.02035 0,-1.592989 c 0,-1.134087 0.244131,-1.745451 0.847457,-2.122234 1.242054,-0.775675 1.056191,-2.087278 -0.402686,-2.841692 -1.045472,-0.540635 -3.50819,-0.646475 -15.042373,-0.646475 -13.227257,0 -13.826943,0.03471 -14.639687,0.847458 -0.77584,0.77584 -0.847457,1.412429 -0.847457,7.532836 0,7.186644 0.26448,8.22432 2.22137,8.715468 0.570816,0.143266 1.170936,0.775904 1.458363,1.537386 0.931886,2.468846 4.682619,3.113802 6.800272,1.169339 z"
       id="path4895"
       inkscape:connector-curvature="0"
       transform="matrix(0.82134134,0,0,0.8535506,-11.215302,-3.9266709)" /></g><g
     id="g4861"
     transform="matrix(2.8008474,0,0,2.5183615,9.3983059,13.423728)"
     style="fill:#808080"><path
       id="path4863"
       d="M 12,0 C 6.5,0 2,4.5 2,10 2,15.5 5,17 12,24 19,17 22,15.5 22,10 22,4.5 17.5,0 12,0 Z m 0,21.5 C 7,16.5 4,14.4 4,10 4,5.6 7.6,2 12,2 c 4.4,0 8,3.6 8,8 0,4.4 -3,6.5 -8,11.5 z"
       inkscape:connector-curvature="0"
       style="fill:#808080" /></g><ellipse
     style="opacity:0.799;fill:url(#radialGradient5033);fill-opacity:1;stroke:none;stroke-width:1.5;stroke-miterlimit:4;stroke-dasharray:none;filter:url(#filter5111)"
     id="path4919"
     cx="43.644066"
     cy="72.881355"
     rx="13.559321"
     ry="7.6271186" /></svg>