<?xml version="1.0" encoding="UTF-8" standalone="no"?>
<svg
   xmlns:osb="http://www.openswatchbook.org/uri/2009/osb"
   xmlns:dc="http://purl.org/dc/elements/1.1/"
   xmlns:cc="http://creativecommons.org/ns#"
   xmlns:rdf="http://www.w3.org/1999/02/22-rdf-syntax-ns#"
   xmlns:svg="http://www.w3.org/2000/svg"
   xmlns="http://www.w3.org/2000/svg"
   xmlns:xlink="http://www.w3.org/1999/xlink"
   xmlns:sodipodi="http://sodipodi.sourceforge.net/DTD/sodipodi-0.dtd"
   xmlns:inkscape="http://www.inkscape.org/namespaces/inkscape"
   enable-background="new 0 0 100 100"
   id="Layer_1"
   version="1.1"
   viewBox="0 0 100 100"
   xml:space="preserve"
   inkscape:version="0.91 r13725"
   sodipodi:docname="fixo.svg"><metadata
     id="metadata13"><rdf:RDF><cc:Work
         rdf:about=""><dc:format>image/svg+xml</dc:format><dc:type
           rdf:resource="http://purl.org/dc/dcmitype/StillImage" /><dc:title></dc:title></cc:Work></rdf:RDF></metadata><defs
     id="defs11"><linearGradient
       inkscape:collect="always"
       id="linearGradient7668"><stop
         style="stop-color:#000000;stop-opacity:1;"
         offset="0"
         id="stop7670" /><stop
         style="stop-color:#000000;stop-opacity:0;"
         offset="1"
         id="stop7672" /></linearGradient><linearGradient
       inkscape:collect="always"
       id="linearGradient7598"><stop
         style="stop-color:#000000;stop-opacity:1;"
         offset="0"
         id="stop7600" /><stop
         style="stop-color:#000000;stop-opacity:0;"
         offset="1"
         id="stop7602" /></linearGradient><linearGradient
       id="linearGradient7574"
       osb:paint="solid"><stop
         style="stop-color:#cccccc;stop-opacity:1;"
         offset="0"
         id="stop7576" /></linearGradient><linearGradient
       id="linearGradient6311"
       osb:paint="solid"><stop
         style="stop-color:#000000;stop-opacity:1;"
         offset="0"
         id="stop6313" /></linearGradient><linearGradient
       id="linearGradient6275"
       osb:paint="solid"><stop
         style="stop-color:#000000;stop-opacity:1;"
         offset="0"
         id="stop6277" /></linearGradient><linearGradient
       id="linearGradient6190"
       osb:paint="solid"><stop
         style="stop-color:#000000;stop-opacity:1;"
         offset="0"
         id="stop6192" /></linearGradient><linearGradient
       id="linearGradient6182"
       osb:paint="solid"><stop
         style="stop-color:#000000;stop-opacity:1;"
         offset="0"
         id="stop6184" /></linearGradient><linearGradient
       inkscape:collect="always"
       xlink:href="#linearGradient7598"
       id="linearGradient7604"
       x1="40.59402"
       y1="658.00793"
       x2="294.46827"
       y2="658.00793"
       gradientUnits="userSpaceOnUse" /><radialGradient
       inkscape:collect="always"
       xlink:href="#linearGradient7668"
       id="radialGradient7674"
       cx="167.53114"
       cy="658.00794"
       fx="167.53114"
       fy="658.00794"
       r="147.51792"
       gradientTransform="matrix(1,0,0,0.57849626,0,277.35281)"
       gradientUnits="userSpaceOnUse" /><filter
       inkscape:collect="always"
       style="color-interpolation-filters:sRGB"
       id="filter7704"
       x="-0.25563032"
       width="1.5112606"
       y="-0.5025963"
       height="2.0051926"><feGaussianBlur
         inkscape:collect="always"
         stdDeviation="27.114279"
         id="feGaussianBlur7706" /></filter></defs><sodipodi:namedview
     pagecolor="#ffffff"
     bordercolor="#666666"
     borderopacity="1"
     objecttolerance="10"
     gridtolerance="10"
     guidetolerance="10"
     inkscape:pageopacity="0"
     inkscape:pageshadow="2"
     inkscape:window-width="1440"
     inkscape:window-height="851"
     id="namedview9"
     showgrid="false"
     inkscape:zoom="4.72"
     inkscape:cx="74.734209"
     inkscape:cy="50"
     inkscape:window-x="0"
     inkscape:window-y="1"
     inkscape:window-maximized="1"
     inkscape:current-layer="g7342"
     showguides="false" /><style
     id="style7340"
     type="text/css"><![CDATA[
	.st0{fill:#319997;}
	.st1{fill-rule:evenodd;clip-rule:evenodd;fill:#319997;}
]]></style><g
     id="g7342"
     transform="matrix(0.09667969,0,0,0.09713035,26.364402,17.918602)"
     style="fill:#aa0000"><path
       id="path7344"
       d="m 95.468,416.506 c 41.078,41.078 97.838,66.49 160.532,66.49 62.694,0 119.448,-25.412 160.532,-66.49 41.078,-41.082 66.489,-97.838 66.489,-160.537 0,-62.687 -25.411,-119.448 -66.489,-160.531 C 375.448,54.36 318.693,28.948 256,28.948 c -62.693,0 -119.454,25.412 -160.532,66.49 -41.083,41.083 -66.495,97.844 -66.495,160.531 0,62.699 25.412,119.455 66.495,160.537 M 256,-0.025 c 141.382,0 256,114.612 256,255.994 0,141.389 -114.618,256 -256,256 -141.388,0 -256,-114.611 -256,-256 C 0,114.587 114.612,-0.025 256,-0.025 Z"
       class="st0"
       inkscape:connector-curvature="0"
       style="fill:#f2f2f2" /><path
       id="path7346"
       d="m 293.63958,129.31544 0,4.36034 0,8.72597 -87.5813,0 0,-2.18259 16.41367,0 c 0.8237,0 1.49638,-0.55853 1.49638,-1.24732 0,-0.6866 -0.6674,-1.24513 -1.49638,-1.24513 l -16.41367,-0.003 0,-1.21035 7.43911,0 c 0.82634,0 1.49638,-0.55632 1.49638,-1.24776 0,-0.69144 -0.6674,-1.24732 -1.49638,-1.24732 l -7.43911,-0.003 0,-1.19582 7.43911,0 c 0.82634,0 1.49638,-0.55633 1.49638,-1.24777 0,-0.69144 -0.6674,-1.24776 -1.49638,-1.24776 l -7.43911,-0.002 0,-1.00657 0,-0.19938 7.43911,0 c 0.82634,0 1.49638,-0.55632 1.49638,-1.24512 0,-0.6866 -0.6674,-1.24996 -1.49638,-1.24996 l -7.43911,0 0,-1.05102 c 0,-0.0541 0.009,-0.10079 0.009,-0.15273 l 16.40522,0 c 0.82369,0 1.49638,-0.55852 1.49638,-1.24512 0,-0.6888 -0.66741,-1.25524 -1.49638,-1.25524 l -15.65809,0 c 1.21019,-2.02283 3.74305,-3.42551 6.62756,-3.42551 l 72.91216,0 c 4.03293,0 7.28599,2.72174 7.28599,6.07552 l 0,3.74812 z m -4.52557,-15.42911 -26.9675,0 c -0.32789,-2.11129 -2.48006,-3.74064 -5.09264,-3.74064 l -14.39774,0 c -2.61839,0 -4.77372,1.62891 -5.09792,3.738 l -26.97384,0.003 c -6.18773,0 -11.21226,4.18561 -11.21226,9.34611 l 0,32.02719 0,55.63915 0,3.97127 c 0,12.90893 12.56132,23.37472 28.05151,23.37472 l 5.01872,0 c 0.22704,2.87888 2.94628,5.1825 6.37359,5.42854 0.27456,1.78867 2.10147,3.16935 4.31911,3.16935 l 2.65694,0 c 0.98631,1.61967 3.40407,6.63977 -0.16263,12.58985 -3.41569,5.70361 -4.09735,10.13569 -2.07824,13.54404 1.73292,2.94269 5.37882,4.87397 10.81097,5.74058 0.2186,0.037 0.42241,0.0568 0.63783,0.0568 1.58245,0 2.99012,-0.94055 3.30639,-2.28382 0.35113,-1.518 -0.84164,-2.98714 -2.67172,-3.27763 -3.25042,-0.52331 -5.29064,-1.43922 -6.04622,-2.71911 -0.99794,-1.6782 -0.28354,-4.63058 2.06979,-8.55343 3.70187,-6.17719 2.74512,-11.68142 1.38444,-15.09769 l 2.31162,0 c 2.21711,0 4.04718,-1.38068 4.31911,-3.16936 3.42149,-0.24603 6.13757,-2.54966 6.36514,-5.42853 l 6.24053,0 c 15.48966,0 28.04517,-10.46579 28.04517,-23.37473 l 0,-3.97127 0,-55.63871 0,-32.02719 c 0.003,-5.16049 -5.01608,-9.34611 -11.21015,-9.34611 z"
       class="st1"
       inkscape:connector-curvature="0"
       style="clip-rule:evenodd;fill:#aa0000;fill-rule:evenodd" /><path
       id="path7513"
       d="m 451.89162,235.47287 c -3.68827,3.755 -9.6805,3.755 -13.36877,0 L 351.98886,147.6139 c -0.61955,-0.50132 -1.15198,-1.04196 -1.64569,-1.6809 l -37.07631,-37.6384 c -0.61955,-0.50132 -1.15198,-1.04197 -1.64569,-1.6809 L 251.36006,45.423028 64.206945,235.47287 c -3.68827,3.755 -9.6805,3.755 -13.36877,0 -3.68827,-3.74516 -3.68827,-9.82982 0,-13.57499 L 243.52854,26.235218 c 0.30009,-0.46201 0.51306,-0.99282 0.90996,-1.4155 1.90706,-1.92664 4.42399,-2.82116 6.92156,-2.76218 2.49757,-0.059 5.0145,0.82571 6.92156,2.76218 0.41626,0.41285 0.60019,0.94366 0.92933,1.4155 l 50.23211,51.02662 0,-25.74431 c 0,0 0,0 0,0 0,-5.42607 4.32718,-9.82983 9.6805,-9.82983 l 38.722,0 c 2.6815,0 5.10162,1.10094 6.84411,2.88014 1.76185,1.7792 2.83639,4.23665 2.83639,6.94969 l 0,84.723262 84.36556,85.65709 c 3.68827,3.74517 3.68827,9.82983 0,13.57499 z M 348.16506,61.347348 l -19.361,0 0,35.57414 19.361,19.659652 0,-55.233792 z m -232.332,157.277202 c 5.34364,0 9.6805,4.40376 9.6805,9.82983 l 0,186.76667 c 0,10.86196 8.67373,19.65965 19.361,19.65965 l 58.083,0 0,0 0,-127.78772 c 0,-5.43589 4.32718,-9.82983 9.6805,-9.82983 l 77.444,0 c 5.35332,0 9.6805,4.39394 9.6805,9.82983 l 0,127.78772 0,0 58.083,0 c 10.69695,0 19.361,-8.79769 19.361,-19.65965 l 0,-186.76667 c 0,-5.42607 4.32718,-9.82983 9.6805,-9.82983 5.35332,0 9.6805,4.40376 9.6805,9.82983 l 0,186.76667 c 0,21.71409 -17.33778,39.3193 -38.722,39.3193 l -212.971,0 c -21.38422,0 -38.722,-17.60521 -38.722,-39.3193 l 0,-186.76667 c 0,-5.4359 4.33687,-9.82983 9.6805,-9.82983 z m 164.5685,216.24632 0,-117.9579 -58.083,0 0,117.9579 0,0 58.083,0 0,0 z"
       inkscape:connector-curvature="0"
       style="clip-rule:evenodd;fill-rule:evenodd" /><path
       style="opacity:1;fill:#ffffff;fill-opacity:1;fill-rule:evenodd;stroke:none;stroke-width:0.1;stroke-miterlimit:10;stroke-dasharray:none;stroke-dashoffset:0;stroke-opacity:1"
       d="m 47.806243,65.905219 c -1.915029,-0.239206 -4.808049,-1.064657 -6.50253,-1.855333 l -1.336453,-0.623614 10.911017,-0.0089 10.911017,-0.0089 -0.788746,0.416478 c -1.401578,0.740071 -4.537789,1.682356 -6.668143,2.003465 -2.26336,0.341157 -4.224553,0.364212 -6.526162,0.07672 z"
       id="path7522"
       inkscape:connector-curvature="0"
       transform="matrix(9.6804999,0,0,9.8298251,-236.76201,-167.8075)" /><path
       style="opacity:1;fill:#ffffff;fill-opacity:1;fill-rule:evenodd;stroke:none;stroke-width:0.1;stroke-miterlimit:10;stroke-dasharray:none;stroke-dashoffset:0;stroke-opacity:1"
       d="m 47.806243,70.97366 c -2.804113,-2.223421 -2.919819,-2.344193 -2.118644,-2.2114 2.739867,0.454126 5.307405,0.579484 7.450701,0.363774 1.243012,-0.125101 2.296359,-0.191121 2.340771,-0.146709 0.08557,0.08557 -4.306854,4.232582 -4.558911,4.304199 -0.0813,0.0231 -1.482561,-1.016339 -3.113917,-2.309864 z"
       id="path7524"
       inkscape:connector-curvature="0"
       transform="matrix(9.6804999,0,0,9.8298251,-236.76201,-167.8075)" /><path
       style="opacity:1;fill:#ffffff;fill-opacity:1;fill-rule:evenodd;stroke:none;stroke-width:0.1;stroke-miterlimit:10;stroke-dasharray:none;stroke-dashoffset:0;stroke-opacity:1"
       d="M 46.429124,68.808456 C 44.470112,68.458411 41.074611,67.286657 38.98967,66.24117 31.59607,62.533674 26.311674,55.459195 24.930357,47.419282 c -0.415402,-2.417837 -0.413297,-6.33903 0.0047,-8.735941 1.373067,-7.87375 6.438971,-14.734725 13.64709,-18.482853 13.037349,-6.779251 29.160645,-1.73531 35.794577,11.197817 1.977592,3.855394 2.799119,7.340148 2.799005,11.872807 -1e-4,3.959322 -0.905922,7.905587 -2.578954,11.235369 -1.666116,3.316013 -4.866773,7.112063 -7.934589,9.410595 -2.280604,1.708721 -5.685157,3.360748 -8.512981,4.130846 -0.91108,0.248114 -1.799519,0.507682 -1.974307,0.576817 -0.69608,0.275329 -1.083256,0.308176 -4.555085,0.386445 -2.419813,0.05455 -4.123112,-0.01197 -5.190678,-0.202728 z m 7.746964,-2.891596 c 1.929981,-0.268434 4.654865,-1.030377 6.322723,-1.767983 0.656248,-0.290224 1.262739,-0.54229 1.347763,-0.560146 1.128298,-0.23697 5.141699,-3.329144 6.740101,-5.192994 1.905471,-2.221911 4.098695,-5.898379 4.42211,-7.412712 0.04828,-0.226044 0.285174,-1.16722 0.526437,-2.0915 0.967866,-3.707872 0.930445,-8.29947 -0.09698,-11.89914 -0.678529,-2.377294 -3.054157,-7.288995 -3.525447,-7.288995 -0.111977,0 -0.146508,-0.09237 -0.07674,-0.205263 0.204964,-0.331638 -4.096123,-4.508434 -5.769225,-5.602508 -1.098156,-0.718105 -1.536017,-1.130925 -1.536017,-1.448173 0,-0.934845 -0.567137,-1.218632 -2.435387,-1.218632 -1.055019,0 -2.390397,-0.169024 -3.40996,-0.431611 -0.921712,-0.237385 -2.412579,-0.489699 -3.313038,-0.560696 -1.209085,-0.09533 -1.73013,-0.231773 -1.992583,-0.52178 -0.454144,-0.501824 -1.304061,-0.502955 -1.865038,-0.0025 -0.278428,0.248399 -1.089316,0.485923 -2.231244,0.653573 -7.477603,1.097806 -14.071521,5.918131 -17.447015,12.754219 -1.449711,2.935971 -2.056867,5.395528 -2.202348,8.921587 -0.182802,4.430653 0.484256,7.625178 2.378503,11.390578 1.143358,2.27278 2.148648,3.667736 4.022811,5.582113 0.815932,0.833438 1.672343,1.886201 1.903134,2.33947 0.552237,1.084581 1.697947,1.817583 3.148656,2.014449 0.643677,0.08735 1.295666,0.258072 1.448864,0.379386 0.819771,0.649154 5.201938,1.969112 7.481933,2.25364 1.396852,0.17432 4.614981,0.130211 6.157981,-0.0844 z"
       id="path7558"
       inkscape:connector-curvature="0"
       transform="matrix(9.6804999,0,0,9.8298251,-236.76201,-167.8075)" /><path
       style="opacity:1;fill:#ffffff;fill-opacity:1;fill-rule:evenodd;stroke:none;stroke-width:0.1;stroke-miterlimit:10;stroke-dasharray:none;stroke-dashoffset:0;stroke-opacity:1"
       d="m 59.396965,27.735625 -0.891569,-0.908443 0,-1.739862 0,-1.739862 0.953389,0 0.95339,0 0,2.648305 c 0,1.456567 -0.02782,2.648305 -0.06182,2.648305 -0.034,0 -0.463027,-0.4088 -0.95339,-0.908443 z"
       id="path7528"
       inkscape:connector-curvature="0"
       transform="matrix(9.6804999,0,0,9.8298251,-236.76201,-167.8075)" /><path
       style="opacity:1;fill:#ffffff;fill-opacity:1;fill-rule:evenodd;stroke:none;stroke-width:0.1;stroke-miterlimit:10;stroke-dasharray:none;stroke-dashoffset:0;stroke-opacity:1"
       d="m 38.665777,61.061106 c -1.147551,-0.463093 -1.134958,-0.339301 -1.134958,-11.156674 0,-10.840863 0.01853,-10.667144 -1.138014,-10.667144 -0.987739,0 -0.98063,-0.0782 -0.98063,10.787254 l 0,10.27878 -1.179314,-1.158017 c -2.516177,-2.470737 -4.302843,-5.375254 -5.469194,-8.891068 -0.96939,-2.922099 -1.279336,-5.186038 -1.128804,-8.245112 0.550228,-11.181543 9.028191,-20.219065 20.383244,-21.72857 l 1.059322,-0.140823 -9.904661,9.924798 c -5.447563,5.458639 -9.904661,10.074499 -9.904661,10.257467 0,0.44388 0.675011,1.033935 1.182801,1.033935 0.255506,0 4.048068,-3.640803 10.150861,-9.744678 l 9.742951,-9.744678 9.753023,9.744678 c 10.024244,10.015665 10.308437,10.259149 11.077144,9.490441 0.721574,-0.721573 0.345845,-1.239451 -4.199991,-5.788979 l -4.454229,-4.457845 0.05804,-3.767292 0.05804,-3.767291 1.377016,0.914009 c 2.013348,1.33638 5.664986,5.055738 6.853793,6.980897 1.344807,2.177789 2.355699,4.759619 2.902557,7.413154 0.832945,4.041739 0.338364,9.670383 -1.113197,12.668913 -0.715155,1.477309 -1.673936,8.379014 -4.494972,8.486196 L 65.70878,61.155898 65.496916,49.89393 c -0.16552,-8.798487 -0.03968,-10.030462 -0.33293,-10.323712 -0.38704,-0.387041 -0.801119,-0.421232 -1.375913,-0.113611 -0.396237,0.212059 -0.409801,0.549 -0.409801,10.180012 0,10.804593 -0.0052,10.855595 -1.159335,11.381455 -0.348832,0.158941 -1.694782,0.253112 -3.617582,0.253112 l -3.062066,0 0,-6.581724 c 0,-4.131793 -0.08164,-6.734267 -0.219318,-6.991526 -0.206521,-0.385887 -0.488394,-0.4098 -4.830508,-0.4098 -3.303996,0 -4.683263,0.07207 -4.865428,0.254237 -0.187081,0.18708 -0.254238,2.033898 -0.254238,6.991525 l 0,6.737288 -3.125,-0.01343 c -1.71875,-0.0074 -3.329311,-0.09588 -3.579025,-0.19665 z M 51.253018,45.210519 c 0.04589,-0.137657 -0.162667,-0.343852 -0.463453,-0.45821 -0.645468,-0.245406 -0.632311,-0.174065 -0.215909,-1.170659 0.182036,-0.435671 0.280367,-0.92401 0.218515,-1.085194 -0.06185,-0.161187 0.0096,-0.293066 0.158737,-0.293066 0.149159,0 0.475867,-0.190678 0.726019,-0.423729 0.251462,-0.234273 0.747668,-0.423729 1.109793,-0.423729 0.832241,0 1.743523,-0.469259 2.310137,-1.189593 0.421511,-0.535863 0.442437,-0.80962 0.442437,-5.788131 0,-3.781921 -0.07024,-5.295906 -0.254237,-5.479903 -0.156899,-0.156899 -0.927496,-0.254237 -2.012712,-0.254237 -1.031074,0 -1.758475,-0.08764 -1.758475,-0.211865 0,-0.276504 -2.265551,-0.276504 -2.436441,0 -0.07202,0.116526 -0.881214,0.211865 -1.798217,0.211865 -1.233222,0 -1.753953,0.08667 -2.000209,0.33293 -0.284103,0.284103 -0.332471,1.06865 -0.329806,5.349576 0.0022,3.587088 0.07858,5.165768 0.267917,5.539948 0.362825,0.717037 1.56707,1.48941 2.322213,1.48941 0.343096,0 0.866219,0.190678 1.162494,0.423729 0.296276,0.233051 0.668835,0.423729 0.827909,0.423729 0.349149,0 0.384708,0.908769 0.05935,1.516712 -0.341526,0.638144 -0.06639,1.383415 0.600212,1.625801 0.678516,0.246718 0.947788,0.212447 1.063726,-0.135384 z"
       id="path7526"
       inkscape:connector-curvature="0"
       transform="matrix(9.6804999,0,0,9.8298251,-236.76201,-167.8075)"
       sodipodi:nodetypes="cssscsssscsssscssscccssssscsssssscssssscscccsscsssssssscsssssssssc" /><ellipse
       style="opacity:0.452;fill:url(#radialGradient7674);fill-opacity:1;fill-rule:evenodd;stroke:url(#linearGradient7604);stroke-width:0.1;stroke-miterlimit:10;stroke-dasharray:none;stroke-dashoffset:0;stroke-opacity:1;filter:url(#filter7704)"
       id="path7562"
       cx="167.53114"
       cy="658.00793"
       rx="126.88712"
       ry="64.666466"
       transform="matrix(0.99797894,-0.06354552,0.13742861,0.99051167,0,0)" /><path
       style="opacity:0.45199998;fill:#ffffff;fill-opacity:0.36842107;fill-rule:evenodd;stroke:none;stroke-width:0.1;stroke-miterlimit:10;stroke-dasharray:none;stroke-dashoffset:0;stroke-opacity:1"
       d="m 47.912175,54.385593 0,-5.614407 2.754238,0 2.754237,0 0,5.614407 0,5.614407 -2.754237,0 -2.754238,0 0,-5.614407 z"
       id="path7708"
       inkscape:connector-curvature="0"
       transform="matrix(10.343434,0,0,10.295443,-272.69845,-184.47995)" /><path
       style="opacity:0.45199998;fill:#ffffff;fill-opacity:1;fill-rule:evenodd;stroke:none;stroke-width:0.1;stroke-miterlimit:10;stroke-dasharray:none;stroke-dashoffset:0;stroke-opacity:1"
       d="m 47.912175,54.385593 0,-5.614407 2.754238,0 2.754237,0 0,5.614407 0,5.614407 -2.754237,0 -2.754238,0 0,-5.614407 z"
       id="path7710"
       inkscape:connector-curvature="0"
       transform="matrix(10.343434,0,0,10.295443,-272.69845,-184.47995)" /><path
       style="opacity:1;fill:#ffffff;fill-opacity:0.36842107;fill-rule:evenodd;stroke:none;stroke-width:0.1;stroke-miterlimit:10;stroke-dasharray:none;stroke-dashoffset:0;stroke-opacity:1"
       d="m 48.12404,31.398305 c 0,-0.116525 -0.174788,-0.211864 -0.388418,-0.211864 -0.520863,0 -0.645736,-0.156414 -0.517219,-0.647861 0.05918,-0.226304 0.287158,-0.411461 0.506618,-0.411461 0.21946,0 0.399019,-0.09782 0.399019,-0.217383 0,-0.141654 1.125542,-0.197009 3.230932,-0.158898 l 3.230932,0.05848 0.06515,0.900424 0.06515,0.900423 -3.29608,0 c -2.056144,0 -3.29608,-0.0797 -3.29608,-0.211864 z"
       id="path7712"
       inkscape:connector-curvature="0"
       transform="matrix(10.343434,0,0,10.295443,-272.69845,-184.47995)" /><path
       style="opacity:1;fill:#ffffff;fill-opacity:0.36842107;fill-rule:evenodd;stroke:none;stroke-width:0.1;stroke-miterlimit:10;stroke-dasharray:none;stroke-dashoffset:0;stroke-opacity:1"
       d="m 48.12404,31.398305 c 0,-0.116525 -0.174788,-0.211864 -0.388418,-0.211864 -0.520863,0 -0.645736,-0.156414 -0.517219,-0.647861 0.05918,-0.226304 0.287158,-0.411461 0.506618,-0.411461 0.21946,0 0.399019,-0.09782 0.399019,-0.217383 0,-0.141654 1.125542,-0.197009 3.230932,-0.158898 l 3.230932,0.05848 0.06515,0.900424 0.06515,0.900423 -3.29608,0 c -2.056144,0 -3.29608,-0.0797 -3.29608,-0.211864 z"
       id="path7714"
       inkscape:connector-curvature="0"
       transform="matrix(10.343434,0,0,10.295443,-272.69845,-184.47995)" /><path
       style="opacity:1;fill:#ffffff;fill-opacity:0.36842107;fill-rule:evenodd;stroke:none;stroke-width:0.1;stroke-miterlimit:10;stroke-dasharray:none;stroke-dashoffset:0;stroke-opacity:1"
       d="m 48.12404,31.398305 c 0,-0.116525 -0.174788,-0.211864 -0.388418,-0.211864 -0.520863,0 -0.645736,-0.156414 -0.517219,-0.647861 0.05918,-0.226304 0.287158,-0.411461 0.506618,-0.411461 0.21946,0 0.399019,-0.09782 0.399019,-0.217383 0,-0.141654 1.125542,-0.197009 3.230932,-0.158898 l 3.230932,0.05848 0.06515,0.900424 0.06515,0.900423 -3.29608,0 c -2.056144,0 -3.29608,-0.0797 -3.29608,-0.211864 z"
       id="path7750"
       inkscape:connector-curvature="0"
       transform="matrix(10.343434,0,0,10.295443,-272.69845,-184.47995)" /><path
       style="opacity:1;fill:#ffffff;fill-opacity:0.36842107;fill-rule:evenodd;stroke:none;stroke-width:0.1;stroke-miterlimit:10;stroke-dasharray:none;stroke-dashoffset:0;stroke-opacity:1"
       d="m 48.12404,31.398305 c 0,-0.116525 -0.174788,-0.211864 -0.388418,-0.211864 -0.520863,0 -0.645736,-0.156414 -0.517219,-0.647861 0.05918,-0.226304 0.287158,-0.411461 0.506618,-0.411461 0.21946,0 0.399019,-0.09782 0.399019,-0.217383 0,-0.141654 1.125542,-0.197009 3.230932,-0.158898 l 3.230932,0.05848 0.06515,0.900424 0.06515,0.900423 -3.29608,0 c -2.056144,0 -3.29608,-0.0797 -3.29608,-0.211864 z"
       id="path7752"
       inkscape:connector-curvature="0"
       transform="matrix(10.343434,0,0,10.295443,-272.69845,-184.47995)" /><path
       style="opacity:1;fill:#ffffff;fill-opacity:1;fill-rule:evenodd;stroke:none;stroke-width:0.1;stroke-miterlimit:10;stroke-dasharray:none;stroke-dashoffset:0;stroke-opacity:1"
       d="m 48.12404,31.398305 c 0,-0.116525 -0.174788,-0.211864 -0.388418,-0.211864 -0.520863,0 -0.645736,-0.156414 -0.517219,-0.647861 0.05918,-0.226304 0.287158,-0.411461 0.506618,-0.411461 0.21946,0 0.399019,-0.09782 0.399019,-0.217383 0,-0.141654 1.125542,-0.197009 3.230932,-0.158898 l 3.230932,0.05848 0.06515,0.900424 0.06515,0.900423 -3.29608,0 c -2.056144,0 -3.29608,-0.0797 -3.29608,-0.211864 z"
       id="path7754"
       inkscape:connector-curvature="0"
       transform="matrix(10.343434,0,0,10.295443,-272.69845,-184.47995)" /></g><g
     id="g7414"
     transform="matrix(2.8114407,0,0,2.6949152,17.216103,15.542372)"
     style="fill:#808080"><path
       id="path7416"
       d="M 12,0 C 6.5,0 2,4.5 2,10 2,15.5 5,17 12,24 19,17 22,15.5 22,10 22,4.5 17.5,0 12,0 Z m 0,21.5 C 5.957498,16.73898 2.957498,14.16102 2.957498,9.7610196 c 0,-4.4 4.5623095,-8.5576208 8.96231,-8.5576208 4.4,0 8.962309,4.3169411 8.962309,8.7169411 C 20.882117,14.32034 17,16.5 12,21.5 Z"
       inkscape:connector-curvature="0"
       sodipodi:nodetypes="sscsscsssc"
       style="fill:#808080" /></g></svg>