<?xml version="1.0" ?><!DOCTYPE svg  PUBLIC '-//W3C//DTD SVG 1.1//EN'  'http://www.w3.org/Graphics/SVG/1.1/DTD/svg11.dtd'><svg height="140px" id="Layer_1" style="enable-background:new 0 0 140 140;" version="1.1" viewBox="0 0 140 140" width="140px" xml:space="preserve" xmlns="http://www.w3.org/2000/svg" xmlns:xlink="http://www.w3.org/1999/xlink"><g><path d="M70,130c-33.084,0-60-26.917-60-60s26.916-60,60-60c33.084,0,60,26.917,60,60S103.084,130,70,130z" style="fill:#F2F2F2;"/><circle cx="70" cy="70" r="58.064" style="fill:#5BB9C6;"/><g><path d="M80.646,40.333H59.355c-0.535,0-1.72-0.766-1.72-1.301v-2.903c0-3.437,2.154-4.795,5.591-4.795    h13.55c3.437,0,4.859,1.358,4.859,4.795v2.903C81.635,39.567,81.18,40.333,80.646,40.333z" style="fill:#CCCCCC;"/><path d="M76.775,31.333h-7.141v9h11.012c0.533,0,0.988-0.766,0.988-1.301v-2.903    C81.635,32.691,80.211,31.333,76.775,31.333z" style="fill:#999999;"/><path d="M76.775,31.333h-1.937c3.437,0,4.796,1.358,4.796,4.795v2.903c0,0.535-0.391,1.301-0.925,1.301    h1.937c0.533,0,0.988-0.766,0.988-1.301v-2.903C81.635,32.691,80.211,31.333,76.775,31.333z" style="fill:#808080;"/><path d="M73.871,104.333h-7.742c-0.535,0-1.494-0.896-1.494-1.43v-2.57H51.613    c-6.404,0-11.978-5.542-11.978-11.946V48.709c0-6.168,5.25-10.376,11.978-10.376h37.743c6.366,0,10.279,4.009,10.279,10.376    v39.678c0,6.729-4.111,11.946-10.279,11.946H74.635v2.57C74.635,103.438,74.406,104.333,73.871,104.333z" style="fill:#E6E6E6;"/><path d="M89.355,38.333h-1.937H81.26H69.635v70.376c1,0,1-0.434,1-0.968v-3.408h1.301h1.936    c0.535,0,0.765-0.896,0.765-1.43v-2.57H87.42h1.936c6.17,0,10.28-5.218,10.28-11.946V73.871V48.709    C99.635,42.342,95.722,38.333,89.355,38.333z" style="fill:#B3B3B3;"/><path d="M68.065,55.333h-8.43v-7.592c0-0.535-0.465-0.967-1-0.967s-1,0.433-1,0.967v7.592h-7.958    c-0.535,0-0.968,0.465-0.968,1s0.433,1,0.968,1h7.958v7.828c0,0.535,0.465,0.968,1,0.968s1-0.433,1-0.968v-7.828h8.43    c0.535,0,0.968-0.465,0.968-1C69.032,55.798,68.6,55.333,68.065,55.333z" style="fill:#EE514A;"/><path d="M69.635,108.709c-0.535,0-1-0.434-1-0.968v-3.871c0-0.535,0.465-0.968,1-0.968s1,0.433,1,0.968    v3.871C70.635,108.275,70.17,108.709,69.635,108.709z" style="fill:#333333;"/><path d="M99.031,74.333c-0.133,0-0.268-0.203-0.391-0.149c-6.677,2.938-13.734,4.252-21.576,4.252    c-6.951,0-13.559-1.179-19.39-2.166c-4.83-0.819-9.392-1.623-13.366-1.623c-1.265,0-2.402,0.062-3.479,0.216    c-0.186,0.026-0.542,0.1-0.683,0.223c-0.032,0.029,0.488,0.131-0.512,0.283v13.019c0,6.404,5.574,11.946,11.978,11.946h13.022    v2.57c0,0.534,0.959,1.43,1.494,1.43h7.742c0.535,0,0.764-0.896,0.764-1.43v-2.57h14.721c6.168,0,10.279-5.218,10.279-11.946    V74.333H99.031z" style="fill:#EE514A;"/><path d="M99.031,74.333c-0.133,0-0.268-0.203-0.391-0.149c-6.677,2.938-13.74,4.252-21.582,4.252    c-2.525,0-5.425-0.267-7.425-0.502v26.4h4.235c0.535,0,0.765-0.896,0.765-1.43v-2.571h14.72c6.17,0,10.28-5.218,10.28-11.946    V74.333H99.031z" style="fill:#B33D38;"/><path d="M84.879,65.917c-4.546,0-8.244-3.781-8.244-8.428c0-4.504,3.639-7.946,7.488-11.589l0.091-0.086    c0.374-0.354,0.956-0.354,1.33,0l0.089,0.084c3.852,3.645,7.486,7.086,7.486,11.591C93.119,62.136,89.423,65.917,84.879,65.917z" style="fill:#EE514A;"/><path d="M72.635,102.903c0,0.534-0.164,1.43-0.699,1.43h1.936c0.535,0,0.765-0.896,0.765-1.43v-2.57h-2    L72.635,102.903L72.635,102.903z" style="fill:#802B28;"/><path d="M89.355,38.333h-1.937c6.366,0,10.216,4.009,10.216,10.376v39.678    c0,6.729-4.047,11.946-10.216,11.946h1.937c6.168,0,10.279-5.218,10.279-11.946V48.709C99.635,42.342,95.722,38.333,89.355,38.333    z" style="fill:#999999;"/><path d="M98.604,74.184c-0.308,0.136-0.969,0.021-0.969,0.149v14.053c0,6.729-4.047,11.947-10.216,11.947    h1.937c6.168,0,10.279-5.218,10.279-11.946V74.333h-0.604C98.898,74.333,98.727,74.13,98.604,74.184z" style="fill:#802B28;"/></g></g></svg>