<?xml version="1.0" encoding="UTF-8" standalone="no"?>
<svg
   xmlns:dc="http://purl.org/dc/elements/1.1/"
   xmlns:cc="http://creativecommons.org/ns#"
   xmlns:rdf="http://www.w3.org/1999/02/22-rdf-syntax-ns#"
   xmlns:svg="http://www.w3.org/2000/svg"
   xmlns="http://www.w3.org/2000/svg"
   xmlns:sodipodi="http://sodipodi.sourceforge.net/DTD/sodipodi-0.dtd"
   xmlns:inkscape="http://www.inkscape.org/namespaces/inkscape"
   enable-background="new 0 0 128 128"
   height="128px"
   id="Layer_1"
   version="1.1"
   viewBox="0 0 128 128"
   width="128px"
   xml:space="preserve"
   inkscape:version="0.91 r"
   sodipodi:docname="me.svg"><metadata
     id="metadata3474"><rdf:RDF><cc:Work
         rdf:about=""><dc:format>image/svg+xml</dc:format><dc:type
           rdf:resource="http://purl.org/dc/dcmitype/StillImage" /></cc:Work></rdf:RDF></metadata><defs
     id="defs3472" /><sodipodi:namedview
     pagecolor="#ffffff"
     bordercolor="#666666"
     borderopacity="1"
     objecttolerance="10"
     gridtolerance="10"
     guidetolerance="10"
     inkscape:pageopacity="0"
     inkscape:pageshadow="2"
     inkscape:window-width="1366"
     inkscape:window-height="744"
     id="namedview3470"
     showgrid="false"
     inkscape:zoom="5.2149125"
     inkscape:cx="64"
     inkscape:cy="64"
     inkscape:window-x="0"
     inkscape:window-y="24"
     inkscape:window-maximized="1"
     inkscape:current-layer="Layer_1" /><path
     d="M63,7.8c-20.3,0-36.8,16.5-36.8,36.8c0,36.8,36.8,58.7,36.8,58.7S99.8,84,99.8,44.6  C99.8,24.2,83.3,7.8,63,7.8z M63.1,98.5c-7.3-5-32.9-24.7-32.9-54c0-18.1,14.7-32.8,32.8-32.8s32.8,14.7,32.8,32.8  C95.8,75.9,70.5,93.9,63.1,98.5z"
     fill="#2C3E50"
     id="path3464"
     style="fill:#008000" /><path
     d="M63,21c13.2,0,24,10.8,24,24S76.2,69,63,69S39,58.2,39,45S49.8,21,63,21 M63,19c-14.4,0-26,11.6-26,26  s11.6,26,26,26s26-11.6,26-26S77.4,19,63,19L63,19z"
     fill="#2C3E50"
     id="path3466"
     style="fill:#cccccc" /><path
     style="opacity:1;fill:#cccccc"
     d="M 59.877966,95.886796 C 58.237288,94.665562 54.073928,90.835509 50.626054,87.375561 37.697351,74.401584 31.359605,61.503303 30.745331,46.915254 30.305076,36.459858 32.708069,29.633664 39.307852,22.59166 45.37932,16.113372 52.593277,12.62068 60.962712,12.107297 77.898961,11.068422 92.35706,22.881278 95.197066,40.078155 c 0.731596,4.430004 0.102449,12.282853 -1.482018,18.498116 -2.404274,9.431029 -8.195655,19.298435 -16.191755,27.587634 -4.14029,4.292057 -13.496362,12.077093 -14.390908,11.974449 -0.149252,-0.01713 -1.613741,-1.03033 -3.254419,-2.251558 z M 69.440872,70.296879 C 78.587709,67.861364 85.943517,60.415611 88.35706,51.149398 90.619054,42.465017 87.775778,32.775206 81.1019,26.424026 75.559542,21.149653 70.243796,18.983051 62.845506,18.983051 c -10.105699,0 -19.002749,5.697414 -23.453786,15.019128 -2.000998,4.190646 -2.022228,4.306286 -2.022228,11.01477 0,6.715495 0.01925,6.81998 2.034032,11.039628 3.31626,6.945392 9.537471,12.200546 16.734581,14.135955 3.742722,1.006475 9.73812,1.053505 13.302767,0.104347 z"
     id="path3476"
     inkscape:connector-curvature="0" /><path
     style="fill:#37404d"
     d="m 63.123557,20.673245 c -13.232168,0 -23.95625,10.896739 -23.95625,24.341514 0,13.444774 10.724082,24.343876 23.95625,24.343876 13.232179,0 23.956248,-10.899198 23.956248,-24.343876 0,-13.444775 -10.724164,-24.341514 -23.956248,-24.341514 z m 0,2.029445 c 12.109154,0 21.961057,10.00828 21.961057,22.312069 0,5.413 -1.908171,10.383095 -5.076343,14.250995 -2.18945,-0.929083 -7.357929,-2.75177 -10.557307,-3.71159 -0.272887,-0.08709 -0.316254,-0.100649 -0.316254,-1.254522 0,-0.952938 0.386381,-1.914193 0.762731,-2.726401 0.40746,-0.882537 0.889081,-2.366166 1.062706,-3.697415 0.485445,-0.572582 1.146947,-1.701139 1.571969,-3.853344 0.372337,-1.896851 0.198705,-2.58652 -0.04884,-3.234353 -0.02536,-0.06835 -0.05256,-0.13578 -0.0721,-0.203181 -0.09358,-0.444757 0.03597,-2.755152 0.355786,-4.547939 0.220297,-1.230209 -0.05624,-3.846331 -1.72312,-6.010367 -1.052781,-1.367913 -3.067073,-3.047879 -6.745979,-3.281602 l -2.018446,0.0025 c -3.616578,0.231873 -5.63274,1.911326 -6.685519,3.27924 -1.66688,2.164131 -1.943417,4.778774 -1.72312,6.008005 0.321654,1.793668 0.447415,4.105006 0.355785,4.54085 -0.01941,0.07621 -0.04482,0.144263 -0.07209,0.21263 -0.245683,0.647832 -0.423183,1.337502 -0.04884,3.234353 0.423021,2.152205 1.084618,3.280858 1.571967,3.853346 0.171614,1.331152 0.655656,2.814878 1.065034,3.697414 0.29827,0.645786 0.439499,1.524524 0.439499,2.766564 0,1.153879 -0.04462,1.167651 -0.299976,1.249798 -3.308473,0.992504 -8.573036,2.927758 -10.536377,3.801367 -3.230502,-3.885645 -5.183312,-8.901503 -5.183312,-14.373849 -9.6e-5,-12.303981 9.851915,-22.314431 21.961057,-22.314431 z m 1.111539,6.06943 c 2.308378,0.147599 4.07091,0.98954 5.236797,2.501957 1.298461,1.687863 1.456973,3.692986 1.330126,4.399097 -0.288542,1.621526 -0.558342,4.546857 -0.318579,5.436264 0.04108,0.14858 0.08876,0.278317 0.139525,0.411086 0.11906,0.310912 0.239697,0.631769 -0.04884,2.102683 -0.36642,1.858155 -0.942764,2.779605 -1.225485,3.031172 -0.192984,0.172336 -0.313704,0.414244 -0.337182,0.675695 -0.0956,1.118197 -0.5372,2.547849 -0.923184,3.380832 -0.442582,0.955838 -0.951087,2.228866 -0.951087,3.588736 0,1.176767 7.92e-4,2.640514 1.730095,3.194188 2.817207,0.84586 7.320707,2.41861 9.699236,3.369019 -3.971354,3.995529 -9.428287,6.466342 -15.442967,6.466342 -5.959984,0 -11.36964,-2.427408 -15.331348,-6.357665 2.247955,-0.93247 6.729791,-2.556403 9.673655,-3.439895 1.711838,-0.548727 1.711493,-2.015156 1.711493,-3.191825 0,-0.975632 -0.06638,-2.412664 -0.627858,-3.6289 -0.386077,-0.832966 -0.825827,-2.262635 -0.923183,-3.380832 -0.02143,-0.261463 -0.142186,-0.503359 -0.337183,-0.675695 -0.282709,-0.251664 -0.858969,-1.173112 -1.225485,-3.031172 -0.290435,-1.4709 -0.167717,-1.791663 -0.04883,-2.102683 0.05072,-0.132769 0.100563,-0.263473 0.139524,-0.411086 0.239763,-0.890374 -0.02812,-3.816229 -0.318579,-5.438626 -0.126657,-0.705253 0.03395,-2.708872 1.332453,-4.396735 1.163871,-1.512417 2.926043,-2.354026 5.17401,-2.499594 l 1.892873,-0.0025 z"
     id="path3542"
     inkscape:connector-curvature="0" /><path
     style="opacity:1;fill:#f9f9f9"
     d="m 45.405245,57.98755 c -3.028232,-4.123933 -4.566839,-9.848644 -4.039725,-15.030649 0.73206,-7.196797 4.522596,-13.269462 10.647947,-17.058646 1.685203,-1.042477 3.778935,-1.911251 6.02123,-2.498452 1.921192,-0.503113 6.180507,-0.692379 8.215862,-0.365079 8.208474,1.319981 14.69306,6.747225 17.471363,14.622574 0.980331,2.778834 1.234596,4.602203 1.130445,8.106538 -0.107283,3.609727 -0.600269,5.797252 -1.948395,8.645616 -0.786464,1.661663 -2.674837,4.681549 -2.927432,4.681549 -0.06568,0 -1.2927,-0.433154 -2.726705,-0.962565 -1.434003,-0.52941 -3.815353,-1.370747 -5.291887,-1.869638 l -2.684609,-0.907073 -0.05846,-0.701445 c -0.03402,-0.408219 0.151321,-1.289985 0.44338,-2.109335 0.276012,-0.774341 0.679649,-2.011928 0.896968,-2.750196 0.217319,-0.738267 0.678943,-1.946341 1.025829,-2.684609 0.847077,-1.802803 1.328249,-4.050963 1.142367,-5.337439 -0.198211,-1.371806 -0.200731,-2.922269 -0.0089,-5.447823 0.197603,-2.60092 -0.108228,-4.033619 -1.232277,-5.772742 -1.683879,-2.60529 -4.345281,-3.85524 -8.221643,-3.861364 -2.092526,-0.0033 -3.689364,0.359721 -5.26508,1.196971 -2.892573,1.536955 -4.667636,5.21588 -4.144247,8.589201 0.243701,1.570693 0.282105,3.947185 0.08715,5.393074 -0.191311,1.418875 0.265603,3.506824 1.152914,5.268435 0.364017,0.722695 0.662114,1.4265 0.662439,1.564011 3.26e-4,0.137512 0.30261,1.15272 0.671743,2.256019 0.488259,1.459351 0.671153,2.340551 0.671153,3.233678 l 0,1.227678 -2.444912,0.812782 c -2.40095,0.798169 -5.294523,1.848844 -7.289148,2.646741 l -1.009082,0.403656 -0.948334,-1.291468 8e-6,0 z"
     id="path3555"
     inkscape:connector-curvature="0" /><path
     style="opacity:1;fill:#37404d;fill-opacity:1"
     d="m 59.574114,66.962648 c -2.910191,-0.530937 -5.613517,-1.594974 -8.06907,-3.176011 -1.830485,-1.17858 -3.489885,-2.594057 -3.283284,-2.800659 0.225095,-0.225095 4.6692,-1.88812 7.340898,-2.74703 2.549355,-0.81958 2.945383,-1.038972 3.374948,-1.869659 0.51609,-0.998007 0.278259,-4.233271 -0.455409,-6.195024 -0.315544,-0.843735 -0.636164,-1.910579 -0.712487,-2.370765 -0.07632,-0.460186 -0.347167,-1.143793 -0.601875,-1.519127 -0.650827,-0.959046 -1.10774,-2.63525 -1.056633,-3.876298 0.08031,-1.950094 0.08261,-4.299137 0.0065,-6.615643 -0.07022,-2.136551 -0.04206,-2.369295 0.393723,-3.254881 1.357111,-2.757865 4.529958,-4.141796 8.251912,-3.599316 2.613786,0.380963 4.215928,1.447309 5.318449,3.539826 0.512125,0.971985 0.530724,1.103143 0.456393,3.218492 -0.07517,2.139122 -0.07718,4.83065 -0.0051,6.818764 0.04293,1.1839 -0.41886,2.849034 -1.046692,3.774194 -0.256626,0.378159 -0.569774,1.191202 -0.695884,1.806763 -0.126111,0.615562 -0.534645,1.895821 -0.907856,2.845022 -1.180342,3.00201 -1.049845,5.62437 0.313954,6.309009 0.275813,0.13846 2.340145,0.873788 4.587406,1.634062 2.247261,0.760273 4.441468,1.533314 4.876018,1.717867 l 0.790088,0.335552 -1.232621,1.027574 c -2.626884,2.189906 -5.597211,3.756853 -8.740994,4.611168 -1.185536,0.322167 -2.19491,0.42335 -4.764122,0.477571 -1.792935,0.03784 -3.655147,-0.0033 -4.138249,-0.09145 l -6e-6,0 z"
     id="path3559"
     inkscape:connector-curvature="0" /></svg>